<svg xmlns="http://www.w3.org/2000/svg" fill="#ffc856" viewBox="125 125 250 250"><path d="M283.164 137.904c-.533.066-2.1.5-3.467.966-1.333.434-2.766.8-3.166.8-.9.034-4.934 1.734-6.6 2.834-.7.466-1.9 1.233-2.667 1.733-2.5 1.567-7.367 6-8.733 7.866-.3.4-1.2 1.634-2.034 2.734s-1.666 2.366-1.833 2.8c-.2.433-.8 1.4-1.333 2.166-1.067 1.5-2.9 6.8-3.867 11.2-.5 2.3-.633 4.134-.6 9.834.034 8.3.3 9.5 2.233 9.5 1.334 0 3.667-1.6 4.5-3.134.434-.767.634-2.233.767-5.7.267-5.666.967-10 2.067-12.666.466-1.1 1.3-3.2 1.9-4.667 2.833-7.067 9.8-13.367 17.866-16.166.934-.334 2.2-.867 2.834-1.2 1.633-.9 11.1-.9 14.3 0 6.033 1.666 8.966 3.233 14.133 7.633 5.6 4.7 5.266 4.533 13.2 7.233 5.633 1.9 6.466 2.233 6.566 2.533.033.167-.833.867-2 1.567-8.4 5.133-11.233 7.367-11.233 8.833 0 .9 1.533 5.567 2.166 6.567.234.367.534 1.2.667 1.833s.567 1.767 1 2.5c.4.733.833 1.933.967 2.667.133.733.6 2.6 1.033 4.166.8 2.867.933 3.7 2.2 11.667.533 3.6.633 4.833.333 6.167-.2.9-.433 3.2-.5 5.1-.2 3.8-1.033 10-1.566 11.566-.2.533-.967 2.633-1.7 4.667-.734 2-1.467 4.166-1.667 4.8-.267.933-3.133 5.933-7.233 12.633-.467.8-2.367 3.266-4.2 5.533-1.833 2.233-3.767 4.6-4.267 5.3-.5.667-2.4 2.433-4.166 3.933a284 284 0 0 0-5.9 5.167c-1.467 1.367-3.134 2.733-3.734 3.067-1.2.633-9.133 6.033-10.433 7.066-.466.367-1 .667-1.2.667s-3.066 1.367-6.4 3c-3.3 1.666-6.2 3-6.4 3-.233 0-1.366.433-2.566 1-1.167.533-2.334 1-2.567 1-.267 0-1.333.4-2.4.866-2.433 1.067-5.133 3.6-5.133 4.8 0 1.7.3 1.834 3.733 1.4 12.733-1.566 16.133-1.8 19.967-1.466 5.433.5 15.6 2.8 18.9 4.3 2 .9 3.633.9 4.2 0 .533-.867-.667-2.767-2.734-4.4-2.9-2.267-5.633-4.167-6.067-4.167-.2 0-1.066-.267-1.933-.633a81 81 0 0 0-3.467-1.234c-1.866-.566-2.4-1.166-1.5-1.6.2-.1.934-.533 1.6-.933.667-.433 2.167-1.333 3.334-2.033 2.366-1.433 5.266-3.533 8.4-6.067a110 110 0 0 1 3.733-2.9c1.933-1.433 12.067-11.633 13-13.1.367-.566 1.333-1.9 2.2-3 3.8-4.966 6.266-9 9.833-16.166 1.433-2.867 4.233-10.333 4.567-12.167.1-.566.433-2.066.733-3.333 1.067-4.633 1.833-19.366 1.2-23.333-.2-1.3-.6-3.7-.9-5.333-.267-1.667-.633-3.834-.767-4.867-.166-1-.433-2.133-.633-2.5-.4-.733-.8-1.867-1.933-5.8-.467-1.533-.967-2.966-1.1-3.166-.6-.834-1.4-3.6-1.234-4.267.1-.4.9-1.167 1.767-1.733.867-.534 2.033-1.367 2.6-1.867.533-.467 2.667-1.9 4.667-3.133 6.233-3.834 8.833-6.034 8.833-7.534 0-.8-.267-1.133-1.567-1.966-.9-.534-2.333-1.134-3.266-1.367-.9-.2-2.567-.8-3.634-1.333-1.1-.534-2.266-.967-2.633-.967s-1.433-.367-2.367-.8-2.2-.9-2.833-1.033c-.6-.134-1.933-.6-2.967-1.067-1.033-.433-2.6-.9-3.5-1-1.366-.167-1.866-.433-2.933-1.567-3.933-4.166-5.3-5.366-8.266-7.133-5-3.033-8.1-4.366-12.767-5.433-3.567-.8-4.833-.967-8.333-.933-2.234.033-4.534.133-5.1.2"/><path d="M290.764 156.637c-1.8.3-2.934 1.366-3.567 3.3-1.1 3.2-.3 5.9 2.367 8.133 1.333 1.133 1.666 1.267 3.4 1.267 2.733 0 4.5-1 5.8-3.3.766-1.334 1-2.167 1-3.534 0-1.633-.134-1.966-1.434-3.5-.766-.933-1.666-1.833-2-2-.866-.466-3.933-.666-5.566-.366M267.83 190.47c-.166.066-1.633.533-3.233 1.033-4.666 1.4-12.066 6.167-16.866 10.833-2.967 2.867-3.933 3.967-5.367 6.034-.466.6-1 1.266-1.266 1.4-.234.133-1.034 1.5-1.8 3-1.934 3.866-2.867 5.6-3.7 6.733-.7.933-1.3 1.966-2.534 4.333-.266.533-2.033 3.7-3.9 7s-4.4 8.067-5.666 10.6c-1.234 2.5-2.567 5.067-3 5.7-.4.6-1.467 2.567-2.334 4.333-.866 1.767-1.7 3.3-1.833 3.367-.133.066-.5.866-.833 1.733s-.933 2.033-1.367 2.6c-.8 1.067-4.466 8.233-4.466 8.733 0 .167-.567 1.2-1.3 2.3-.7 1.067-2 3.367-2.9 5.067-1.3 2.467-1.567 3.167-1.267 3.667.8 1.266 3.533.6 7.5-1.934 2-1.233 4.633-4.1 4.633-5.033 0-.3.3-.8.667-1.133.7-.634 3.333-5.9 3.333-6.7 0-.234.2-.634.467-.867.266-.267.866-1.233 1.366-2.133s1.3-2.4 1.8-3.3c2.3-4.167 3.967-7.4 4.2-8.167.134-.466.8-1.666 1.5-2.666.667-1.034 1.9-3.134 2.667-4.667 2.367-4.6 6.067-11.467 6.533-12 .234-.267 1.467-2.533 2.734-5.033s2.6-4.967 3-5.5c.9-1.3 4.333-6.667 5.2-8.133 1.766-3 12.6-11.3 14.733-11.334.4 0 2.166-.466 3.933-1.033 3.2-1 3.2-1 5.933-.533 2.767.5 5.967 2 7.9 3.7 2.267 2.033 3.967 6 4.9 11.366.7 3.9.5 7.233-.667 11-1.133 3.667-1.666 4.767-4.7 9.933-.733 1.267-1.566 2.734-1.833 3.267a17 17 0 0 1-1.433 2.067c-.467.6-2.133 2.566-3.633 4.4-4.334 5.233-12.934 13.4-17.1 16.266-.734.5-2 1.433-2.834 2.067a84 84 0 0 1-3.833 2.833c-1.266.9-2.966 2.1-3.7 2.633-.766.534-2.366 1.434-3.566 2s-2.967 1.567-3.934 2.234c-.966.633-2.366 1.466-3.1 1.833-.766.367-1.6.767-1.866.933-1.267.734-4.967 2.367-5.4 2.367-.267 0-1.367.433-2.467.967-3.767 1.833-6.5 3.033-7.033 3.033-.6 0-7.9 2.3-10.367 3.3-.966.4-2.166.7-2.666.7s-1.834.233-2.9.533c-5.767 1.533-19.967 2.6-24.467 1.867-1.2-.2-4-.534-6.2-.767-2.2-.2-4.766-.567-5.733-.833-2.733-.734-4.1-.5-4.1.766 0 1.1 5 5.434 6.233 5.434.267 0 1.1.3 1.867.666.767.4 2.667 1 4.233 1.367 1.567.367 3.434.833 4.167 1.067 1.833.533 10.5.5 14.766-.067 1.867-.267 3.5-.367 3.634-.267.233.234-.634 2.1-1.734 3.734-1.433 2.1-2.733 4.466-4.466 8-1 2-2.234 4.3-2.767 5.033-1.533 2.3-3.933 7.033-3.933 7.733 0 .4-.134.767-.267.867-.167.1-1.1 1.8-2.066 3.766-1 1.967-2.367 4.534-3.067 5.7a100 100 0 0 0-3 5.5c-.933 1.867-2.033 3.834-2.467 4.4-.9 1.234-4.133 7-5.233 9.334-.267.533-1.467 2.933-2.7 5.333-1.2 2.366-2.2 4.6-2.2 4.933s-.467 1.467-1.067 2.533c-1.166 2.134-1.1 3.034.234 3.034.6 0 1.066-.367 1.666-1.267.467-.667 1.067-1.6 1.4-2.067.3-.466 1.2-1.5 1.967-2.333s1.7-2 2.067-2.6c.766-1.3 3.633-4.567 5.533-6.367.7-.666 2.167-2.266 3.233-3.6 1.034-1.333 3-3.433 4.333-4.666s3.567-3.4 4.967-4.767c4.567-4.433 5.767-5.466 9.667-8.4 4.6-3.433 11.333-7.933 11.866-7.933.2 0 .967-.433 1.667-.933 3.167-2.3 15.266-7.4 21.066-8.933 6.034-1.567 15.834-2.667 16.8-1.9.233.2 2.7.433 5.433.566 3.3.134 5.967.434 7.834.9 1.566.4 4.033.967 5.5 1.3s3.3.834 4.1 1.134c1.566.6 1.866.533 2.4-.5.3-.534.1-.9-1.334-2.434-.9-.966-2.533-2.233-3.6-2.766a279 279 0 0 0-2.9-1.567c-2.4-1.267-5.266-2.533-5.8-2.533-.3 0-.7-.134-.9-.3-.166-.167-1.133-.534-2.133-.8-3.733-1.067-5.867-1.2-13.266-.9-7.734.333-11.767.966-15.734 2.466-1.2.467-3.066 1.1-4.166 1.467-3.267 1.033-7.234 2.567-8.9 3.433-.867.434-4.033 2.034-7 3.5-3 1.5-6.4 3.467-7.6 4.433-1.2.934-2.833 2.1-3.633 2.6-.8.534-1.967 1.334-2.534 1.834-2.533 2.166-2.366.466.5-4.567 2.267-4.033 4.234-7.6 6.2-11.4 1.234-2.366 2.6-4.866 3.034-5.6.466-.733 1.466-2.466 2.266-3.833 1.534-2.7 1.867-2.933 5-3.767 3.867-.966 7.9-2.2 8.3-2.5.2-.166 1.2-.566 2.233-.866s2.8-.967 3.9-1.534c1.134-.533 2.334-1 2.7-1 1.334 0 17.434-8.2 20.133-10.266 1.834-1.367 6.867-4.7 8.167-5.367.433-.233 1.6-1.1 2.567-1.966 1-.867 2.666-2.234 3.733-3.067 1.067-.8 2.167-1.667 2.433-1.9 4.1-3.4 5.7-4.9 8.667-7.967 3.967-4.066 8.066-8.966 10.1-11.966.733-1.1 1.7-2.433 2.133-2.933.433-.534 1.367-2.267 2.133-3.834.734-1.6 1.434-3.133 1.6-3.4.8-1.5 2.834-7.033 3.434-9.4s.666-3.4.5-7.266c-.3-7.6-1.534-11.867-4.8-16.667-3-4.4-7.4-7.933-10.7-8.533-.667-.133-1.733-.433-2.333-.7-1.034-.433-9.134-.933-9.9-.633"/></svg>